<svg width="230" height="60" viewBox="0 0 230 60" fill="none" xmlns="http://www.w3.org/2000/svg">
<g clip-path="url(#clip0_1991_25289)">
<path d="M8.91672 24.2122L0.508555 26.9494C0.268093 28.1336 0.116984 29.3341 0.0565033 30.5409L10.8492 34.0195L20.4531 30.889C20.411 29.8589 20.3061 28.8324 20.1389 27.8151L8.91672 24.2122Z" fill="#F05323"/>
<path d="M8.94836 43.8335L2.14725 46.0486C2.67587 47.8749 3.30057 49.6721 4.01874 51.4325L10.8764 53.6408L16.3507 51.8574C17.0396 50.2033 17.6431 48.515 18.1589 46.799L15.2206 45.8542L8.94836 43.8335Z" fill="#F05323"/>
<path d="M0.967391 41.2614L15.2274 45.8542L18.1657 46.799C19.137 43.6119 19.8246 40.3452 20.2203 37.0369L0.0474662 30.541C-0.140135 33.9178 0.237328 37.6314 0.967391 41.2614Z" fill="#F47920"/>
<path d="M8.91672 24.2122L20.1389 27.8151C19.2009 22.2368 16.2965 18.1864 10.2232 18.1954C6.55475 18.2112 4.03682 19.703 2.423 22.1192L8.91672 24.2122Z" fill="#F47920"/>
<path d="M10.291 59.8C11.6471 59.8 13.3174 57.9059 14.8996 54.9359L4.01874 51.4325C6.03715 56.3486 8.43981 59.8045 10.291 59.8Z" fill="#F47920"/>
<path d="M14.5583 1.17569L10.2277 5.5086L15.8331 11.114L20.166 6.78113C20.5371 6.41358 20.8319 5.97634 21.0334 5.49452C21.235 5.0127 21.3394 4.49581 21.3406 3.97353C21.3418 3.45125 21.2397 2.93388 21.0404 2.45115C20.841 1.96842 20.5482 1.52984 20.1788 1.16061C19.8095 0.791375 19.3708 0.498767 18.8879 0.299595C18.4051 0.100423 17.8877 -0.00138681 17.3654 1.42663e-05C16.8432 0.00141534 16.3263 0.106 15.8446 0.307759C15.3628 0.509518 14.9257 0.804476 14.5583 1.17569V1.17569Z" fill="#A1C53A"/>
<path d="M2.91574 3.8021C2.17248 4.54593 1.75497 5.55443 1.75497 6.60595C1.75497 7.65748 2.17248 8.66598 2.91574 9.4098L4.61997 11.114L10.2277 5.5086L8.52118 3.8021C8.15321 3.43388 7.71629 3.14177 7.23539 2.94247C6.75449 2.74317 6.23902 2.64059 5.71846 2.64059C5.19789 2.64059 4.68243 2.74317 4.20152 2.94247C3.72062 3.14177 3.2837 3.43388 2.91574 3.8021V3.8021Z" fill="#A1C53A"/>
<path d="M4.61997 11.114L7.33228 13.8264C7.7128 14.2069 8.16455 14.5087 8.66173 14.7147C9.15891 14.9206 9.69179 15.0266 10.2299 15.0266C10.7681 15.0266 11.301 14.9206 11.7981 14.7147C12.2953 14.5087 12.7471 14.2069 13.1276 13.8264L15.8399 11.114L10.2345 5.50861L4.61997 11.114Z" fill="#73B043"/>
<g clip-path="url(#clip1_1991_25289)">
<g clip-path="url(#clip2_1991_25289)">
<path d="M41.1494 30.6892V26.5029C41.1497 26.3995 41.1296 26.2972 41.0902 26.2016C41.0508 26.1061 40.9929 26.0193 40.9198 25.9463C40.8467 25.8732 40.7599 25.8153 40.6644 25.7759C40.5689 25.7365 40.4665 25.7164 40.3632 25.7167H34.6858C34.5825 25.7164 34.4801 25.7365 34.3846 25.7759C34.289 25.8153 34.2022 25.8732 34.1292 25.9463C34.0561 26.0193 33.9982 26.1061 33.9588 26.2016C33.9194 26.2972 33.8993 26.3995 33.8996 26.5029V30.6892C33.8996 30.8977 33.8167 31.0977 33.6693 31.2451C33.5219 31.3926 33.3219 31.4754 33.1134 31.4754H32.2097C32.0012 31.4754 31.8012 31.3926 31.6537 31.2451C31.5063 31.0977 31.4235 30.8977 31.4235 30.6892V18.1731C31.4258 17.9681 31.5081 17.7721 31.6529 17.627C31.7976 17.4818 31.9934 17.3989 32.1984 17.396H33.1021C33.3106 17.396 33.5106 17.4788 33.658 17.6262C33.8054 17.7737 33.8883 17.9737 33.8883 18.1822V22.6373C33.888 22.7407 33.9081 22.843 33.9475 22.9386C33.9869 23.0341 34.0448 23.1209 34.1179 23.1939C34.191 23.267 34.2777 23.3249 34.3733 23.3643C34.4688 23.4037 34.5712 23.4239 34.6745 23.4236H40.3519C40.4552 23.4239 40.5576 23.4037 40.6531 23.3643C40.7486 23.3249 40.8354 23.267 40.9085 23.1939C40.9816 23.1209 41.0395 23.0341 41.0789 22.9386C41.1183 22.843 41.1384 22.7407 41.1381 22.6373V18.1731C41.1393 18.0695 41.1609 17.9671 41.2018 17.8719C41.2427 17.7766 41.302 17.6904 41.3764 17.6182C41.4507 17.546 41.5386 17.4892 41.6349 17.451C41.7313 17.4129 41.8342 17.3942 41.9379 17.396H42.8416C43.0501 17.396 43.25 17.4788 43.3975 17.6262C43.5449 17.7737 43.6278 17.9737 43.6278 18.1822V30.6982C43.6278 30.9068 43.5449 31.1067 43.3975 31.2542C43.25 31.4016 43.0501 31.4844 42.8416 31.4844H41.9379C41.8337 31.4848 41.7304 31.4643 41.6342 31.4244C41.538 31.3845 41.4506 31.3258 41.3773 31.2518C41.3039 31.1778 41.246 31.09 41.2068 30.9934C41.1677 30.8968 41.1482 30.7934 41.1494 30.6892Z" fill="#17222F"/>
<path d="M56.7968 25.6738C56.8039 26.0433 56.7896 26.4129 56.7538 26.7808C56.7321 26.9727 56.6403 27.1498 56.4961 27.2782C56.3518 27.4066 56.1653 27.4773 55.9721 27.4766H49.4001C49.7525 28.8028 50.8279 29.6522 52.5065 29.6522C53.4246 29.6214 54.3374 29.4988 55.2311 29.2862C55.3343 29.265 55.4408 29.2647 55.5441 29.2853C55.6475 29.3059 55.7456 29.347 55.8328 29.4061C55.92 29.4653 55.9945 29.5414 56.0518 29.6298C56.1091 29.7183 56.1481 29.8173 56.1664 29.9211L56.2432 30.3729C56.2765 30.5631 56.2384 30.7589 56.1363 30.9227C56.0341 31.0866 55.8751 31.2069 55.6897 31.2608C54.6378 31.5852 53.546 31.7624 52.4455 31.7872C48.7562 31.7872 46.8517 29.5077 46.8517 26.5639C46.8517 23.3739 49.068 21.3428 52.0095 21.3428C54.7657 21.3428 56.7561 23.0644 56.7968 25.6738ZM50.4122 25.6534H53.6429C53.7746 25.6547 53.9046 25.6228 54.0208 25.5607C54.137 25.4986 54.2358 25.4083 54.308 25.2981C54.3802 25.1879 54.4235 25.0613 54.434 24.9299C54.4445 24.7986 54.4219 24.6667 54.3681 24.5464C53.9547 23.7218 53.1097 23.2293 52.0524 23.2293C51.5813 23.2088 51.1135 23.3173 50.6994 23.543C50.2854 23.7687 49.9408 24.1032 49.7028 24.5103C49.6393 24.6306 49.6083 24.7654 49.6131 24.9013C49.6178 25.0373 49.658 25.1696 49.7297 25.2852C49.8015 25.4008 49.9022 25.4956 50.0219 25.5602C50.1417 25.6248 50.2762 25.6569 50.4122 25.6534V25.6534Z" fill="#17222F"/>
<path d="M69.1479 22.5199V30.6892C69.1479 30.7925 69.1276 30.8947 69.088 30.9901C69.0485 31.0855 68.9906 31.1721 68.9176 31.2451C68.8446 31.3181 68.7579 31.3761 68.6626 31.4156C68.5672 31.4551 68.4649 31.4754 68.3617 31.4754H66.7644V30.7254C65.8526 31.4114 64.7426 31.7825 63.6015 31.7827C60.7617 31.7827 58.8572 29.6884 58.8572 26.5187C58.8797 23.41 60.6397 21.3586 63.7687 21.3586C65.3466 21.3556 66.9221 21.4825 68.4792 21.7382C68.6657 21.7669 68.8358 21.8615 68.9586 22.005C69.0813 22.1484 69.1485 22.3311 69.1479 22.5199V22.5199ZM61.1909 26.5865C61.1909 28.4707 62.246 29.7765 63.9246 29.7765C64.8209 29.7705 65.6932 29.4863 66.421 28.9632C66.5256 28.8896 66.6109 28.7917 66.6695 28.678C66.7281 28.5643 66.7583 28.4382 66.7576 28.3103V24.2437C66.7572 24.0466 66.683 23.8567 66.5496 23.7116C66.4162 23.5665 66.2333 23.4767 66.0369 23.4597C65.4473 23.4055 64.8237 23.3739 64.1053 23.3739C61.9975 23.3739 61.1909 24.7407 61.1909 26.5865Z" fill="#17222F"/>
<path d="M74.143 31.4754H73.332C73.2287 31.4754 73.1265 31.4551 73.0311 31.4156C72.9357 31.3761 72.849 31.3182 72.776 31.2452C72.703 31.1721 72.6451 31.0855 72.6056 30.9901C72.5661 30.8947 72.5458 30.7925 72.5458 30.6892V17.5496C72.5458 17.4464 72.5661 17.3441 72.6056 17.2487C72.6451 17.1533 72.703 17.0667 72.776 16.9937C72.849 16.9207 72.9357 16.8628 73.0311 16.8232C73.1265 16.7837 73.2287 16.7634 73.332 16.7634H74.143C74.3515 16.7634 74.5515 16.8462 74.699 16.9937C74.8464 17.1411 74.9292 17.3411 74.9292 17.5496V30.6892C74.9292 30.8977 74.8464 31.0977 74.699 31.2452C74.5515 31.3926 74.3515 31.4754 74.143 31.4754Z" fill="#17222F"/>
<path d="M85.9474 30.7638C85.9722 30.962 85.9206 31.1622 85.8031 31.3238C85.6857 31.4853 85.5111 31.5961 85.3149 31.6336C84.6991 31.7497 84.0729 31.8012 83.4465 31.7872C81.1059 31.7872 79.8001 30.4317 79.8001 27.9126V24.5961C79.8001 24.3876 79.7173 24.1876 79.5698 24.0402C79.4224 23.8927 79.2224 23.8099 79.0139 23.8099H78.4514C78.2428 23.8099 78.0429 23.7271 77.8954 23.5796C77.748 23.4322 77.6651 23.2322 77.6651 23.0237V22.4611C77.6651 22.2526 77.748 22.0526 77.8954 21.9052C78.0429 21.7578 78.2428 21.6749 78.4514 21.6749H79.0139C79.2224 21.6749 79.4224 21.5921 79.5698 21.4447C79.7173 21.2972 79.8001 21.0972 79.8001 20.8887V18.7741C79.7998 18.6707 79.8199 18.5682 79.8593 18.4725C79.8987 18.3769 79.9565 18.2899 80.0296 18.2167C80.1026 18.1435 80.1894 18.0853 80.2849 18.0457C80.3805 18.006 80.4829 17.9856 80.5863 17.9856H81.3951C81.4986 17.9856 81.601 18.006 81.6965 18.0457C81.792 18.0853 81.8788 18.1435 81.9519 18.2167C82.0249 18.2899 82.0828 18.3769 82.1221 18.4725C82.1615 18.5682 82.1816 18.6707 82.1813 18.7741V20.8887C82.1813 21.0972 82.2642 21.2972 82.4116 21.4447C82.559 21.5921 82.759 21.6749 82.9675 21.6749H84.6281C84.8366 21.6749 85.0365 21.7578 85.184 21.9052C85.3314 22.0526 85.4143 22.2526 85.4143 22.4611V23.0237C85.4143 23.2322 85.3314 23.4322 85.184 23.5796C85.0365 23.7271 84.8366 23.8099 84.6281 23.8099H82.9675C82.759 23.8099 82.559 23.8927 82.4116 24.0402C82.2642 24.1876 82.1813 24.3876 82.1813 24.5961V27.6619C82.1813 28.9677 82.658 29.6522 83.9029 29.6522C84.2749 29.6532 84.6467 29.6344 85.0166 29.5957C85.2213 29.5732 85.4267 29.6314 85.5892 29.758C85.7516 29.8846 85.8583 30.0695 85.8864 30.2735L85.9474 30.7638Z" fill="#17222F"/>
<path d="M98.5742 25.1767V30.6892C98.5742 30.8977 98.4914 31.0977 98.3439 31.2452C98.1965 31.3926 97.9965 31.4754 97.788 31.4754H96.977C96.7684 31.4754 96.5685 31.3926 96.421 31.2452C96.2736 31.0977 96.1907 30.8977 96.1907 30.6892V25.8613C96.1907 24.4515 95.2871 23.5388 93.9315 23.5388C93.2385 23.5428 92.547 23.6048 91.8643 23.7241C91.6823 23.7584 91.518 23.8553 91.4 23.9981C91.282 24.1409 91.2176 24.3205 91.2182 24.5057V30.6892C91.2182 30.7925 91.1979 30.8947 91.1584 30.9901C91.1189 31.0855 91.0609 31.1721 90.9879 31.2452C90.9149 31.3182 90.8283 31.3761 90.7329 31.4156C90.6375 31.4551 90.5353 31.4754 90.432 31.4754H89.6209C89.4124 31.4754 89.2125 31.3926 89.065 31.2452C88.9176 31.0977 88.8347 30.8977 88.8347 30.6892V17.5496C88.8347 17.3411 88.9176 17.1411 89.065 16.9937C89.2125 16.8462 89.4124 16.7634 89.6209 16.7634H90.432C90.5353 16.7634 90.6375 16.7837 90.7329 16.8232C90.8283 16.8628 90.9149 16.9207 90.9879 16.9937C91.0609 17.0667 91.1189 17.1533 91.1584 17.2487C91.1979 17.3441 91.2182 17.4464 91.2182 17.5496V20.7532C91.2177 20.8641 91.2408 20.9739 91.2861 21.0753C91.3313 21.1766 91.3975 21.2671 91.4805 21.3409C91.5634 21.4146 91.6611 21.4698 91.767 21.5029C91.8729 21.5359 91.9847 21.5461 92.0948 21.5326C92.8756 21.4236 93.6628 21.367 94.4512 21.3632C96.9363 21.3632 98.5742 22.8565 98.5742 25.1767Z" fill="#17222F"/>
<path d="M111.099 31.4754H109.518C109.372 31.4752 109.229 31.4343 109.105 31.3572C108.98 31.2802 108.88 31.1702 108.815 31.0394L106.956 27.2981C106.879 27.1431 106.753 27.0178 106.598 26.9417C106.442 26.8656 106.266 26.8429 106.096 26.8771C105.927 26.9114 105.773 27.0006 105.659 27.1311C105.545 27.2615 105.478 27.4259 105.467 27.5986L105.266 30.7389C105.253 30.9383 105.165 31.1254 105.02 31.2622C104.874 31.399 104.682 31.4752 104.482 31.4754H102.648C102.541 31.4753 102.436 31.4534 102.338 31.4113C102.24 31.3691 102.152 31.3075 102.078 31.2301C102.005 31.1528 101.948 31.0614 101.911 30.9614C101.874 30.8614 101.858 30.755 101.864 30.6485L102.508 18.1325C102.518 17.9311 102.605 17.7414 102.752 17.6026C102.898 17.4639 103.092 17.3867 103.294 17.3869H105.182C105.331 17.3875 105.476 17.4303 105.602 17.5103C105.727 17.5903 105.827 17.7042 105.89 17.8388L109.608 25.4727C109.673 25.6054 109.773 25.7172 109.898 25.7955C110.023 25.8737 110.168 25.9153 110.315 25.9153C110.463 25.9153 110.607 25.8737 110.732 25.7955C110.858 25.7172 110.958 25.6054 111.023 25.4727L114.723 17.841C114.788 17.7053 114.891 17.5911 115.019 17.5122C115.147 17.4332 115.296 17.3929 115.446 17.396H117.314C117.516 17.3957 117.709 17.4726 117.856 17.6109C118.002 17.7492 118.09 17.9383 118.101 18.1393L118.763 30.6576C118.768 30.7641 118.752 30.8707 118.716 30.9708C118.679 31.0709 118.622 31.1625 118.549 31.2399C118.475 31.3173 118.387 31.3789 118.289 31.421C118.191 31.463 118.085 31.4846 117.979 31.4845H116.146C115.946 31.4849 115.753 31.4089 115.607 31.272C115.461 31.1352 115.373 30.9477 115.36 30.748L115.159 27.6076C115.148 27.4349 115.081 27.2706 114.967 27.1401C114.853 27.0097 114.7 26.9204 114.53 26.8862C114.36 26.8519 114.184 26.8746 114.029 26.9508C113.873 27.0269 113.747 27.1522 113.67 27.3072L111.813 31.0484C111.746 31.1791 111.643 31.2883 111.517 31.3637C111.391 31.4392 111.246 31.4779 111.099 31.4754Z" fill="#17222F"/>
<path d="M132.704 26.399C132.704 29.6522 130.382 31.8211 127.006 31.8211C123.631 31.8211 121.306 29.6455 121.306 26.399C121.306 23.1525 123.649 21.0333 127.006 21.0333C130.364 21.0333 132.704 23.166 132.704 26.399ZM129.492 26.399C129.492 24.9079 128.457 23.9138 127.006 23.9138C125.556 23.9138 124.521 24.9101 124.521 26.399C124.521 27.933 125.556 28.9474 127.006 28.9474C128.457 28.9474 129.492 27.933 129.492 26.399Z" fill="#17222F"/>
<path d="M143.092 30.6847C143.113 30.8784 143.063 31.0731 142.949 31.2315C142.836 31.39 142.668 31.5009 142.478 31.5432C141.671 31.7223 140.846 31.8042 140.02 31.7872C137.512 31.7872 136.125 30.2735 136.125 27.5173V25.2174C136.125 25.0089 136.042 24.8089 135.894 24.6614C135.747 24.514 135.547 24.4312 135.338 24.4312H134.984C134.775 24.4312 134.575 24.3483 134.428 24.2009C134.28 24.0535 134.198 23.8535 134.198 23.645V22.2126C134.198 22.0041 134.28 21.8041 134.428 21.6567C134.575 21.5092 134.775 21.4264 134.984 21.4264H135.338C135.442 21.4264 135.544 21.4061 135.639 21.3666C135.735 21.3271 135.821 21.2691 135.894 21.1961C135.967 21.1231 136.025 21.0365 136.065 20.9411C136.104 20.8457 136.125 20.7434 136.125 20.6402V18.7944C136.125 18.5863 136.207 18.3867 136.354 18.2393C136.501 18.0919 136.7 18.0088 136.909 18.0082H138.691C138.794 18.0079 138.897 18.028 138.992 18.0675C139.088 18.1069 139.175 18.1648 139.248 18.2378C139.321 18.3109 139.379 18.3977 139.418 18.4932C139.458 18.5887 139.478 18.6911 139.477 18.7944V20.6402C139.477 20.7434 139.498 20.8457 139.537 20.9411C139.577 21.0365 139.635 21.1231 139.708 21.1961C139.781 21.2691 139.867 21.3271 139.963 21.3666C140.058 21.4061 140.16 21.4264 140.264 21.4264H141.78C141.988 21.4264 142.188 21.5092 142.335 21.6567C142.483 21.8041 142.566 22.0041 142.566 22.2126V23.645C142.566 23.8535 142.483 24.0535 142.335 24.2009C142.188 24.3483 141.988 24.4312 141.78 24.4312H140.264C140.16 24.4312 140.058 24.4515 139.963 24.491C139.867 24.5305 139.781 24.5884 139.708 24.6614C139.635 24.7345 139.577 24.8211 139.537 24.9165C139.498 25.0119 139.477 25.1141 139.477 25.2174V27.1874C139.477 28.1815 139.873 28.7824 140.907 28.7824C141.297 28.7799 141.686 28.7565 142.073 28.7124C142.281 28.6895 142.489 28.7496 142.652 28.8795C142.816 29.0094 142.921 29.1987 142.945 29.406L143.092 30.6847Z" fill="#17222F"/>
<path d="M144.994 18.2138C144.986 17.8107 145.097 17.4142 145.315 17.0746C145.532 16.7351 145.846 16.4678 146.215 16.3068C146.585 16.1458 146.994 16.0983 147.391 16.1704C147.787 16.2425 148.154 16.4309 148.443 16.7117C148.732 16.9924 148.932 17.3529 149.016 17.7472C149.1 18.1415 149.065 18.552 148.915 18.9263C148.765 19.3006 148.508 19.622 148.175 19.8495C147.842 20.0771 147.449 20.2005 147.046 20.2042C146.78 20.2111 146.515 20.1648 146.267 20.068C146.019 19.9712 145.793 19.8258 145.601 19.6404C145.41 19.455 145.258 19.2333 145.154 18.9883C145.05 18.7434 144.995 18.48 144.994 18.2138V18.2138ZM147.931 31.4754H146.171C145.961 31.4754 145.759 31.3919 145.611 31.2432C145.462 31.0944 145.378 30.8927 145.378 30.6824V22.2194C145.378 22.0091 145.462 21.8074 145.611 21.6587C145.759 21.51 145.961 21.4264 146.171 21.4264H147.94C148.151 21.4264 148.353 21.5099 148.502 21.6585C148.651 21.8072 148.735 22.0089 148.736 22.2194V30.6824C148.735 30.7876 148.714 30.8917 148.673 30.9887C148.633 31.0857 148.573 31.1736 148.498 31.2473C148.423 31.3211 148.334 31.3792 148.236 31.4184C148.139 31.4575 148.034 31.4769 147.929 31.4754H147.931Z" fill="#17222F"/>
<path d="M154.508 31.001L150.837 22.5244C150.785 22.4049 150.764 22.2744 150.775 22.1447C150.786 22.015 150.83 21.8901 150.901 21.7812C150.973 21.6724 151.07 21.583 151.185 21.521C151.299 21.4591 151.427 21.4266 151.557 21.4264H153.455C153.611 21.4263 153.764 21.4726 153.894 21.5595C154.024 21.6464 154.125 21.7699 154.185 21.9144L155.68 25.6489C155.739 25.7946 155.84 25.9195 155.97 26.0075C156.1 26.0955 156.253 26.1425 156.41 26.1425C156.567 26.1425 156.721 26.0955 156.851 26.0075C156.981 25.9195 157.081 25.7946 157.14 25.6489L158.638 21.9144C158.696 21.7686 158.797 21.6437 158.927 21.5555C159.057 21.4674 159.21 21.42 159.368 21.4196H161.265C161.396 21.4193 161.525 21.4518 161.641 21.5141C161.756 21.5764 161.854 21.6665 161.926 21.7763C161.997 21.8861 162.04 22.012 162.051 22.1427C162.061 22.2733 162.039 22.4046 161.986 22.5244L158.315 31.001C158.254 31.1421 158.154 31.2623 158.026 31.3467C157.898 31.431 157.747 31.4758 157.594 31.4754H155.229C155.075 31.4758 154.925 31.431 154.797 31.3467C154.669 31.2623 154.568 31.1421 154.508 31.001V31.001Z" fill="#17222F"/>
<path d="M174.17 22.312V30.6892C174.17 30.8977 174.087 31.0977 173.94 31.2452C173.792 31.3926 173.592 31.4754 173.384 31.4754H170.797V30.7977C169.98 31.4658 168.951 31.8193 167.896 31.794C165.472 31.794 163.131 29.9075 163.131 26.4057C163.213 23.2428 165.058 21.1214 168.165 21.1214C169.918 21.1214 170.953 21.2457 173.476 21.5394C173.666 21.5619 173.841 21.6527 173.969 21.7949C174.096 21.9371 174.168 22.121 174.17 22.312V22.312ZM166.38 26.4622C166.38 27.9736 167.311 29.0106 168.639 29.0106C169.303 29.0027 169.946 28.7835 170.476 28.3848C170.576 28.3108 170.657 28.2144 170.712 28.1033C170.767 27.9922 170.796 27.8696 170.795 27.7455V24.6594C170.793 24.4586 170.716 24.2657 170.578 24.1198C170.44 23.9739 170.252 23.8857 170.051 23.8732C169.636 23.846 169.22 23.8302 168.764 23.8302C167.126 23.8302 166.38 24.9282 166.38 26.4622V26.4622Z" fill="#17222F"/>
<path d="M185.256 30.6847C185.277 30.8784 185.226 31.0731 185.113 31.2315C185 31.39 184.832 31.5009 184.641 31.5432C183.835 31.7223 183.01 31.8042 182.183 31.7872C179.676 31.7872 178.288 30.2735 178.288 27.5173V25.2174C178.288 25.0089 178.206 24.8089 178.058 24.6614C177.911 24.514 177.711 24.4312 177.502 24.4312H177.148C176.939 24.4312 176.739 24.3483 176.592 24.2009C176.444 24.0535 176.361 23.8535 176.361 23.645V22.2126C176.361 22.0041 176.444 21.8041 176.592 21.6567C176.739 21.5092 176.939 21.4264 177.148 21.4264H177.502C177.606 21.4264 177.708 21.4061 177.803 21.3666C177.899 21.3271 177.985 21.2691 178.058 21.1961C178.131 21.1231 178.189 21.0365 178.229 20.9411C178.268 20.8457 178.288 20.7434 178.288 20.6402V18.7944C178.288 18.5859 178.371 18.3859 178.519 18.2385C178.666 18.091 178.866 18.0082 179.075 18.0082H180.859C181.068 18.0082 181.268 18.091 181.415 18.2385C181.563 18.3859 181.646 18.5859 181.646 18.7944V20.6402C181.646 20.7434 181.666 20.8457 181.706 20.9411C181.745 21.0365 181.803 21.1231 181.876 21.1961C181.949 21.2691 182.036 21.3271 182.131 21.3666C182.226 21.4061 182.329 21.4264 182.432 21.4264H183.946C184.154 21.4264 184.354 21.5092 184.501 21.6567C184.649 21.8041 184.732 22.0041 184.732 22.2126V23.645C184.732 23.8535 184.649 24.0535 184.501 24.2009C184.354 24.3483 184.154 24.4312 183.946 24.4312H182.432C182.329 24.4312 182.226 24.4515 182.131 24.491C182.036 24.5305 181.949 24.5884 181.876 24.6614C181.803 24.7345 181.745 24.8211 181.706 24.9165C181.666 25.0119 181.646 25.1141 181.646 25.2174V27.1874C181.646 28.1815 182.039 28.7824 183.074 28.7824C183.463 28.7799 183.852 28.7565 184.239 28.7124C184.447 28.6895 184.655 28.7496 184.818 28.8795C184.982 29.0094 185.087 29.1987 185.111 29.406L185.256 30.6847Z" fill="#17222F"/>
<path d="M197.23 25.6331C197.238 26.0394 197.215 26.4457 197.162 26.8486C197.135 27.0366 197.041 27.2086 196.897 27.333C196.754 27.4575 196.57 27.5261 196.38 27.5263H190.314C190.667 28.4594 191.537 29.04 192.822 29.04C193.771 29.0192 194.716 28.9057 195.644 28.7011C195.746 28.6815 195.851 28.6825 195.954 28.7039C196.056 28.7252 196.152 28.7667 196.238 28.8257C196.324 28.8847 196.398 28.9602 196.454 29.0478C196.511 29.1354 196.549 29.2333 196.568 29.336L196.74 30.3029C196.775 30.4923 196.739 30.6879 196.639 30.8525C196.539 31.0171 196.382 31.1391 196.197 31.1953C195.085 31.5517 193.927 31.7472 192.759 31.7759C189.008 31.7759 186.937 29.4964 186.937 26.4306C186.937 23.1977 189.176 21.1034 192.221 21.1034C195.142 21.1147 197.214 22.9175 197.23 25.6331ZM190.829 25.5766H193.631C193.753 25.5872 193.876 25.5644 193.986 25.5107C194.096 25.457 194.19 25.3744 194.257 25.2717C194.324 25.169 194.362 25.05 194.367 24.9274C194.371 24.8049 194.343 24.6833 194.284 24.5758C193.915 23.9432 193.217 23.5749 192.323 23.5749C191.933 23.5556 191.544 23.6376 191.196 23.813C190.847 23.9884 190.549 24.2512 190.332 24.5758C190.152 24.8514 190.176 25.5766 190.834 25.5766H190.829Z" fill="#17222F"/>
<g clip-path="url(#clip3_1991_25289)">
<path d="M42.1652 39.3307C42.1268 39.5358 42.0087 39.7172 41.8367 39.8354C41.6648 39.9535 41.4531 39.9987 41.2479 39.9611C40.2872 39.7579 39.3105 39.6392 38.329 39.6064C35.688 39.6064 34.2466 41.1223 34.2466 43.1895C34.2466 45.4058 35.8168 46.8833 38.1618 46.8833C39.2034 46.8437 40.2404 46.7244 41.2637 46.5263C41.4667 46.4914 41.6752 46.5376 41.8443 46.6552C42.0134 46.7727 42.1295 46.952 42.1674 47.1544L42.3934 48.3676C42.4304 48.5639 42.3908 48.7669 42.2828 48.935C42.1749 49.103 42.0067 49.2234 41.8127 49.2713C40.5427 49.5841 39.2415 49.7531 37.9337 49.7751C33.7225 49.7751 30.9165 47.1522 30.9165 43.2008C30.9165 39.2856 33.7225 36.6626 37.9337 36.6626C39.2371 36.6682 40.5361 36.8144 41.8082 37.0986C42.0041 37.1441 42.1748 37.2635 42.2847 37.4319C42.3946 37.6003 42.4351 37.8047 42.3979 38.0023L42.1652 39.3307Z" fill="#58C4C8"/>
<path d="M54.0645 41.416V48.72C54.0645 48.9286 53.9816 49.1285 53.8342 49.276C53.6868 49.4234 53.4868 49.5063 53.2783 49.5063H51.0665V48.8963C50.3373 49.4905 49.4201 49.8053 48.4797 49.7841C46.3199 49.7841 44.2324 48.1033 44.2324 44.981C44.3069 42.157 45.9494 40.2728 48.7192 40.2728C50.2645 40.2728 51.184 40.379 53.3777 40.6343C53.5675 40.659 53.742 40.7519 53.8683 40.8958C53.9947 41.0396 54.0644 41.2245 54.0645 41.416V41.416ZM47.1196 45.0307C47.1196 46.3863 47.951 47.3013 49.1326 47.3013C49.7098 47.2953 50.2707 47.1089 50.7366 46.7681C50.8368 46.6951 50.918 46.5992 50.9735 46.4883C51.0289 46.3774 51.0569 46.2549 51.0552 46.131V43.5126C51.055 43.3114 50.9779 43.118 50.8397 42.9718C50.7015 42.8257 50.5127 42.7379 50.3119 42.7263C49.9685 42.7037 49.6342 42.6925 49.2456 42.6925C47.7861 42.6992 47.1196 43.6707 47.1196 45.0375V45.0307Z" fill="#58C4C8"/>
<path d="M62.1773 43.2166C61.66 43.2166 61.1403 43.2437 60.623 43.2731C60.4228 43.2845 60.2344 43.3716 60.0959 43.5168C59.9575 43.6619 59.8794 43.8542 59.8774 44.0548V48.711C59.8774 48.9195 59.7946 49.1195 59.6472 49.2669C59.4997 49.4144 59.2998 49.4972 59.0912 49.4972H57.6725C57.4639 49.4972 57.264 49.4144 57.1165 49.2669C56.9691 49.1195 56.8862 48.9195 56.8862 48.711V41.5493C56.8849 41.3629 56.9501 41.1822 57.0703 41.0397C57.1904 40.8972 57.3575 40.8023 57.5414 40.7721C59.0576 40.5307 60.5867 40.3798 62.1208 40.3203C62.2269 40.316 62.3328 40.3332 62.4321 40.3707C62.5314 40.4083 62.6222 40.4654 62.6989 40.5388C62.7757 40.6122 62.8368 40.7003 62.8788 40.7978C62.9208 40.8953 62.9427 41.0003 62.9432 41.1065V42.4349C62.9438 42.6397 62.8638 42.8365 62.7205 42.9828C62.5772 43.129 62.3821 43.213 62.1773 43.2166V43.2166Z" fill="#58C4C8"/>
<path d="M73.3831 44.2988C73.3884 44.6354 73.3711 44.972 73.3311 45.3064C73.307 45.4969 73.2143 45.6721 73.0705 45.7993C72.9267 45.9265 72.7414 45.997 72.5494 45.9977H67.2154C67.5294 46.8291 68.3043 47.3532 69.4498 47.3532C70.2666 47.3363 71.0799 47.241 71.8784 47.0686C71.9808 47.0486 72.0862 47.0492 72.1884 47.0703C72.2905 47.0914 72.3875 47.1326 72.4737 47.1914C72.5598 47.2502 72.6335 47.3256 72.6903 47.4131C72.7471 47.5006 72.786 47.5985 72.8047 47.7011L72.929 48.4038C72.9634 48.5928 72.9272 48.7879 72.8272 48.952C72.7272 49.1161 72.5705 49.2377 72.3868 49.2939C71.4172 49.5994 70.4095 49.7667 69.3933 49.7909C66.0519 49.7909 64.1971 47.7576 64.1971 45.0262C64.1971 42.1457 66.192 40.2819 68.9076 40.2819C71.517 40.2728 73.365 41.8791 73.3831 44.2988ZM67.107 44.17H70.8008C70.7443 43.1714 70.0417 42.5433 69.0092 42.5433C67.9768 42.5433 67.3058 43.1511 67.107 44.17Z" fill="#58C4C8"/>
</g>
</g>
</g>
</g>
<defs>
<clipPath id="clip0_1991_25289">
<rect width="230" height="59.8" fill="white"/>
</clipPath>
<clipPath id="clip1_1991_25289">
<rect width="199.18" height="59.8" fill="white" transform="translate(30.82)"/>
</clipPath>
<clipPath id="clip2_1991_25289">
<rect width="167.9" height="39.56" fill="white" transform="translate(30.36 15.18)"/>
</clipPath>
<clipPath id="clip3_1991_25289">
<rect width="91.54" height="19.78" fill="white" transform="translate(30.82 34.96)"/>
</clipPath>
</defs>
</svg>
